Coordinates
version=1
nRows=10
nColumns=40
inDegrees=yes

Units are S.I. units (second, meters, Newtons, ...)
Angles are in degrees.

endheader
time	pelvis_tilt	pelvis_list	pelvis_rotation	pelvis_tx	pelvis_ty	pelvis_tz	hip_flexion_r	hip_adduction_r	hip_rotation_r	knee_angle_r	knee_angle_r_beta	ankle_angle_r	subtalar_angle_r	mtp_angle_r	hip_flexion_l	hip_adduction_l	hip_rotation_l	knee_angle_l	knee_angle_l_beta	ankle_angle_l	subtalar_angle_l	mtp_angle_l	lumbar_extension	lumbar_bending	lumbar_rotation	arm_flex_r	arm_add_r	arm_rot_r	elbow_flex_r	pro_sup_r	wrist_flex_r	wrist_dev_r	arm_flex_l	arm_add_l	arm_rot_l	elbow_flex_l	pro_sup_l	wrist_flex_l	wrist_dev_l
     24.31500000	     -4.36218160	     -5.32156032	     11.46193185	      0.95615754	      0.91716344	      0.46200835	     -0.69123503	      2.42663442	    -18.42071303	     16.23705692	     16.23705692	     18.30466970	     -3.12739344	     -2.52200733	     28.29492868	     -5.03749530	      4.14421567	     29.48722324	     29.48722324	      9.15271669	    -12.63250036	      3.84024093	     -7.98172037	      3.87256694	      5.84727895	     37.14651200	    -19.25488946	    -15.49985546	     66.20934478	     45.78044442	      0.00000000	      0.00000000	     -7.24171834	    -11.89778895	      8.03731774	     37.84663481	     44.87716742	      0.00000000	      0.00000000
     24.33285714	     -4.47806135	     -5.27536810	     11.09915971	      0.95690028	      0.91779922	      0.45786907	     -0.86234980	      1.92014813	    -18.65247607	     16.58424321	     16.58424321	     18.03042384	     -2.27605684	     -2.95918413	     27.93162591	     -4.80933890	      4.07006993	     29.68212905	     29.68212905	     10.03754797	    -12.91170781	      5.18639730	     -7.83446513	      3.82171692	      4.76151662	     38.16446474	    -17.67506479	    -15.42237413	     60.38024994	     45.95488897	      0.00000000	      0.00000000	     -7.94984096	    -12.13786189	      6.29512415	     40.11996342	     45.15238140	      0.00000000	      0.00000000
     24.35071429	     -4.61180738	     -5.24175688	     10.67040826	      0.95753561	      0.91851958	      0.45383809	     -0.91755007	      1.45913681	    -18.49582368	     17.03362328	     17.03362328	     17.70364281	     -2.00985761	     -3.07880654	     27.45708143	     -4.66212635	      3.79013220	     29.58611762	     29.58611762	     10.37734080	    -13.17714159	      5.29309494	     -7.78995922	      3.79713647	      5.32902041	     36.79894706	    -18.04793253	    -15.37171817	     58.41043470	     46.00934255	      0.00000000	      0.00000000	     -7.13473228	    -12.29492779	      5.74934924	     41.02421986	     45.24204862	      0.00000000	      0.00000000
     24.36857143	     -4.74343437	     -5.19199789	     10.27825984	      0.95802398	      0.91919785	      0.44965628	     -0.92216341	      0.90369910	    -18.60167577	     17.58825024	     17.58825024	     17.30705762	     -1.41465352	     -3.71649021	     27.01074424	     -4.44541870	      3.60040239	     29.53906473	     29.53906473	     10.82752152	    -13.50035951	      5.78806445	     -7.67581244	      3.79991011	      4.85041695	     36.89515651	    -17.38048380	    -15.23143717	     53.55984881	     46.14502636	      0.00000000	      0.00000000	     -7.17027036	    -12.53557411	      4.78222671	     42.63343389	     45.41144704	      0.00000000	      0.00000000
     24.38642857	     -4.87392018	     -5.08228745	      9.82861159	      0.95838145	      0.91987576	      0.44558172	     -0.76123133	      0.28202967	    -18.34300629	     18.42906232	     18.42906232	     17.02949855	     -1.32332938	     -3.96976151	     26.48144485	     -4.24495715	      3.16137361	     29.34227920	     29.34227920	     11.12807802	    -13.60520721	      5.81482060	     -7.68697743	      3.75546823	      5.20292359	     35.41772847	    -17.59407066	    -15.22851996	     51.76360045	     46.19576686	      0.00000000	      0.00000000	     -6.34920534	    -12.77972461	      4.43769720	     43.42558656	     45.47200401	      0.00000000	      0.00000000
     24.40428571	     -4.98622696	     -5.02047756	      9.41707615	      0.95856826	      0.92040490	      0.44141076	     -0.57785505	     -0.34544972	    -18.31309433	     19.30058183	     19.30058183	     16.52317965	     -0.97246499	     -5.07875111	     26.02146193	     -4.03276574	      2.88491262	     29.26589513	     29.26589513	     11.54661799	    -13.85338551	      6.14290322	     -7.64187255	      3.80336741	      4.75107934	     35.53151965	    -17.05622848	    -15.25478498	     46.53493344	     46.34956024	      0.00000000	      0.00000000	     -6.21552539	    -13.18699154	      4.16599824	     44.94191744	     45.56685294	      0.00000000	      0.00000000
     24.42214286	     -4.96006376	     -5.15206236	      9.05322287	      0.95876936	      0.92105106	      0.43741939	     -0.56323932	     -0.64169972	    -18.03496773	     20.02337420	     20.02337420	     16.17979640	     -0.88514615	     -5.18953787	     25.49807721	     -4.06421006	      2.65231462	     29.23643017	     29.23643017	     11.87996428	    -14.00440052	      6.07544360	     -7.82841075	      4.14749259	      4.40330171	     33.98196993	    -16.64787082	    -15.19549704	     45.71092779	     46.36570658	      0.00000000	      0.00000000	     -5.56412256	    -13.45917748	      4.02996258	     45.26386703	     45.59179717	      0.00000000	      0.00000000
     24.44000000	     -5.22875955	     -4.79237285	      8.49654615	      0.95849518	      0.92104637	      0.43332500	      0.35575091	     -1.81153285	    -17.68042545	     22.01742278	     22.01742278	     16.03298222	     -0.94473908	     -6.06423975	     25.12039271	     -3.59563479	      2.01620824	     29.07148809	     29.07148809	     12.22103216	    -14.06552783	      6.06289448	     -7.74783951	      3.82543538	      5.14495000	     32.27568404	    -17.34638268	    -15.27138489	     43.21881281	     46.44739484	      0.00000000	      0.00000000	     -4.48137745	    -13.70769542	      3.77954615	     46.31816445	     45.64596415	      0.00000000	      0.00000000
     24.45785714	     -5.34262117	     -4.69177939	      8.02571872	      0.95823957	      0.92107401	      0.42935531	      1.00600455	     -2.59002496	    -17.34218665	     23.66682749	     23.66682749	     15.66537106	     -0.95572537	     -7.01649949	     24.75567240	     -3.37153630	      1.63317978	     29.10283939	     29.10283939	     12.58665035	    -14.29141918	      6.08253241	     -7.78506730	      3.86852401	      5.21936657	     30.84727824	    -17.44028637	    -15.26907691	     40.81250787	     46.52253647	      0.00000000	      0.00000000	     -3.64826523	    -14.02977949	      3.76018429	     47.08317048	     45.67363581	      0.00000000	      0.00000000
     24.47571429	     -5.43468601	     -4.59737328	      7.54461887	      0.95786507	      0.92096512	      0.42553100	      1.77607693	     -3.36776054	    -16.88219861	     25.51404515	     25.51404515	     15.16364731	     -1.15039641	     -8.23872741	     24.41049510	     -3.16377434	      1.25119997	     29.18641529	     29.18641529	     12.99166287	    -14.50793826	      6.11862153	     -7.85929277	      3.92846211	      5.12361033	     29.46216412	    -17.38429767	    -15.23995593	     38.37197265	     46.59788316	      0.00000000	      0.00000000	     -2.86616392	    -14.40683185	      3.82680193	     47.76470385	     45.69333995	      0.00000000	      0.00000000
